<svg viewBox="0 0 64 64" xmlns="http://www.w3.org/2000/svg">
  <defs>
    <linearGradient id="zenouz-mark-gradient" x1="12" y1="10" x2="52" y2="54" gradientUnits="userSpaceOnUse">
      <stop offset="0%" stop-color="#00d4ff" />
      <stop offset="100%" stop-color="#00ffa3" />
    </linearGradient>
    <filter id="zenouz-mark-glow" x="-40%" y="-40%" width="180%" height="180%">
      <feGaussianBlur stdDeviation="1.35" result="blur" />
      <feMerge>
        <feMergeNode in="blur" />
        <feMergeNode in="SourceGraphic" />
      </feMerge>
    </filter>
  </defs>

  <rect x="4" y="4" width="56" height="56" rx="14" fill="#05070d" />
  <rect x="4.5" y="4.5" width="55" height="55" rx="13.5" fill="none" stroke="#1e2536" stroke-opacity="0.8" />

  <g fill="none" stroke="url(#zenouz-mark-gradient)" stroke-linecap="round" stroke-linejoin="round" filter="url(#zenouz-mark-glow)">
    <line x1="16" y1="18" x2="27" y2="18" stroke-width="2.3" opacity="0.78" />
    <line x1="27" y1="18" x2="38" y2="18" stroke-width="2.3" opacity="0.78" />
    <line x1="38" y1="18" x2="49" y2="18" stroke-width="2.3" opacity="0.78" />

    <line x1="49" y1="18" x2="42" y2="27" stroke-width="2.3" opacity="0.78" />
    <line x1="42" y1="27" x2="32" y2="36" stroke-width="2.3" opacity="0.78" />
    <line x1="32" y1="36" x2="22" y2="46" stroke-width="2.3" opacity="0.78" />
    <line x1="22" y1="46" x2="16" y2="52" stroke-width="2.3" opacity="0.78" />

    <line x1="16" y1="52" x2="27" y2="52" stroke-width="2.3" opacity="0.78" />
    <line x1="27" y1="52" x2="38" y2="52" stroke-width="2.3" opacity="0.78" />
    <line x1="38" y1="52" x2="49" y2="52" stroke-width="2.3" opacity="0.78" />
  </g>

  <g fill="url(#zenouz-mark-gradient)" filter="url(#zenouz-mark-glow)">
    <circle cx="16" cy="18" r="3.3" />
    <circle cx="27" cy="18" r="2.4" />
    <circle cx="38" cy="18" r="2.4" />
    <circle cx="49" cy="18" r="3.3" />

    <circle cx="42" cy="27" r="2.6" />
    <circle cx="32" cy="36" r="3.2" />
    <circle cx="22" cy="46" r="2.6" />

    <circle cx="16" cy="52" r="3.3" />
    <circle cx="27" cy="52" r="2.4" />
    <circle cx="38" cy="52" r="2.4" />
    <circle cx="49" cy="52" r="3.3" />
  </g>
</svg>
